<?xml version="1.0" encoding="UTF-8" standalone="no"?>
<svg
   width="130"
   height="130"
   viewBox="0 0 129.79 129.79"
   version="1.1"
   id="svg12"
   sodipodi:docname="logo.svg"
   inkscape:version="1.4 (e7c3feb1, 2024-10-09)"
   xmlns:inkscape="http://www.inkscape.org/namespaces/inkscape"
   xmlns:sodipodi="http://sodipodi.sourceforge.net/DTD/sodipodi-0.dtd"
   xmlns="http://www.w3.org/2000/svg"
   xmlns:svg="http://www.w3.org/2000/svg">
  <defs
     id="defs12" />
  <sodipodi:namedview
     id="namedview12"
     pagecolor="#505050"
     bordercolor="#ffffff"
     borderopacity="1"
     inkscape:showpageshadow="0"
     inkscape:pageopacity="0"
     inkscape:pagecheckerboard="1"
     inkscape:deskcolor="#505050"
     inkscape:zoom="4.46"
     inkscape:cx="65.022422"
     inkscape:cy="61.098655"
     inkscape:window-width="1776"
     inkscape:window-height="934"
     inkscape:window-x="0"
     inkscape:window-y="25"
     inkscape:window-maximized="0"
     inkscape:current-layer="svg12" />
  <path
     fill="none"
     stroke="#e07a5f"
     stroke-width="5"
     d="m 75.616769,60.38 c 0,0 -10.94,-18.8 -7.77,-32.63 3.16,-13.8 18.56,-24.21 18.56,-24.21 0,0 8.07,19.55 7.65,33.27 -0.44,14.56 -18.44,23.57 -18.44,23.57 z"
     id="path1"
     style="stroke-width:4.99991015;stroke-dasharray:none;stroke:#3d9ba8;stroke-opacity:1" />
  <path
     fill="none"
     stroke="#e07a5f"
     stroke-width="5"
     d="m 60.31,76.206769 c 0,0 -18.49,-11.13 -32.1,-7.9 -13.58,3.21 -23.81,18.87 -23.81,18.87 0,0 19.23,8.2 32.72,7.78 14.33,-0.45 23.19,-18.75 23.19,-18.75 z"
     id="path2"
     style="stroke:#3d9ba8;stroke-opacity:1" />
  <path
     fill="none"
     d="m 72.5106,72.0481 c 0,0 21.8228,-3.0321 26.0608,3.8298 5.2738,8.5397 -12.8504,29.2866 -6.6084,36.9866 5.5794,6.891 36.8386,-3.808 36.8386,-3.808"
     id="path3"
     style="stroke:#3d9ba8;stroke-width:4.99192308;stroke-dasharray:none;stroke-opacity:1" />
  <path
     fill="none"
     d="m 72.935,72.0982 c 0,0 -2.8296,20.9616 3.9142,25.2803 8.4094,5.3573 28.8504,-13.0366 36.4324,-6.6966 6.7854,5.667 -3.1936,38.5501 -3.1936,38.5501"
     id="path4"
     style="stroke:#3d9ba8;stroke-width:4.99193;stroke-dasharray:none;stroke-opacity:1" />
  <path
     fill="none"
     d="M 115.50199,99.134279 98.934205,115.48374"
     id="path5"
     style="stroke:#3d9ba8;stroke-width:4.99192;stroke-dasharray:none;stroke-opacity:1" />
  <path
     fill="none"
     d="M 110.96839,91.713363 90.923789,111.59016"
     id="path6"
     style="stroke:#3d9ba8;stroke-width:4.99192308;stroke-dasharray:none;stroke-opacity:1" />
  <path
     fill="none"
     d="M 97.696793,75.28474 78.081325,95.403689"
     id="path7"
     style="stroke:#3d9ba8;stroke-width:4.99192308;stroke-dasharray:none;stroke-opacity:1" />
  <path
     fill="none"
     d="M 89.843483,71.357239 72.669064,88.98956"
     id="path8"
     style="stroke:#3d9ba8;stroke-width:4.99192308;stroke-dasharray:none;stroke-opacity:1" />
  <path
     fill="none"
     stroke="#e07a5f"
     stroke-width="4.71"
     d="m 53.03,52.8 a 24.89,25.31 0 0 0 0,-35.79 24.89,25.31 0 0 0 -35.2,0 24.89,25.31 0 0 0 0,35.79 24.89,25.31 0 0 0 35.2,0 z"
     id="path9"
     style="stroke:#3d9ba8;stroke-opacity:1" />
  <g
     transform="matrix(-0.32,0.32,0.32,0.32,120.57432,-40.030456)"
     stroke="#e07a5f"
     stroke-width="10.25"
     id="g11"
     style="stroke:#3d9ba8;stroke-opacity:1">
    <path
       fill="none"
       stroke-width="18.56"
       d="m 259.45,-56.71 a 27,27 0 0 1 -27,-27 27,27 0 0 1 27,-27 27,27 0 0 1 27,27 27,27 0 0 1 -27,27 z"
       transform="matrix(0.55,0,0,0.55,104.79,8.44)"
       id="path10"
       style="stroke:#3d9ba8;stroke-opacity:1" />
    <path
       opacity="0.28"
       fill="none"
       d="m 248.01,-22.87 a 14.9,14.9 0 0 1 -14.9,-14.9 14.9,14.9 0 0 1 14.9,-14.9 14.9,14.9 0 0 1 14.9,14.9 14.9,14.9 0 0 1 -14.9,14.9 z"
       id="path11"
       style="stroke:#3d9ba8;stroke-opacity:1" />
  </g>
  <path
     fill="none"
     stroke="#e07a5f"
     stroke-width="3.39"
     d="M 53.41,51.42 73.53,71.88"
     id="path12"
     style="stroke-width:4.99991015;stroke-dasharray:none;stroke:#3d9ba8;stroke-opacity:1" />
</svg>
