<?xml version="1.0" encoding="UTF-8" standalone="no"?>
<!-- Created with Inkscape (http://www.inkscape.org/) -->

<svg
   width="129.79283mm"
   height="129.79269mm"
   viewBox="0 0 129.79284 129.79269"
   version="1.1"
   id="svg1"
   sodipodi:docname="logo_small.svg"
   inkscape:version="1.4 (e7c3feb1, 2024-10-09)"
   xmlns:inkscape="http://www.inkscape.org/namespaces/inkscape"
   xmlns:sodipodi="http://sodipodi.sourceforge.net/DTD/sodipodi-0.dtd"
   xmlns="http://www.w3.org/2000/svg"
   xmlns:svg="http://www.w3.org/2000/svg">
  <sodipodi:namedview
     id="namedview1"
     pagecolor="#505050"
     bordercolor="#ffffff"
     borderopacity="1"
     inkscape:showpageshadow="0"
     inkscape:pageopacity="0"
     inkscape:pagecheckerboard="1"
     inkscape:deskcolor="#505050"
     inkscape:document-units="mm"
     showgrid="false"
     inkscape:zoom="0.9"
     inkscape:cx="360"
     inkscape:cy="298.33333"
     inkscape:window-width="1904"
     inkscape:window-height="934"
     inkscape:window-x="8"
     inkscape:window-y="25"
     inkscape:window-maximized="0"
     inkscape:current-layer="layer1">
    <inkscape:grid
       id="grid1"
       units="mm"
       originx="-35.907627"
       originy="-17.939268"
       spacingx="0.99999998"
       spacingy="1"
       empcolor="#0099e5"
       empopacity="0.30196078"
       color="#0099e5"
       opacity="0.14901961"
       empspacing="5"
       enabled="true"
       visible="false" />
  </sodipodi:namedview>
  <defs
     id="defs1">
    <filter
       inkscape:label="BrushedMetal"
       inkscape:menu="Image Effects"
       inkscape:menu-tooltip="Adds a small scale graininess"
       style="color-interpolation-filters:sRGB"
       id="filter25"
       x="-0.17188121"
       y="-0.17188118"
       width="1.3437624"
       height="1.3437624">
      <feTurbulence
         type="fractalNoise"
         numOctaves="3"
         baseFrequency="0.0040000000000000001 5.0345102040816334"
         seed="0"
         result="result0"
         id="feTurbulence24" />
      <feColorMatrix
         result="result4"
         values="0"
         type="saturate"
         id="feColorMatrix24" />
      <feComposite
         in="SourceGraphic"
         in2="result4"
         operator="arithmetic"
         k1="0.35"
         k2="0.7"
         k3="0.1"
         result="result2"
         id="feComposite24"
         k4="0" />
      <feBlend
         result="result5"
         mode="normal"
         in="result2"
         in2="SourceGraphic"
         id="feBlend24" />
      <feComposite
         in="result5"
         in2="SourceGraphic"
         operator="in"
         result="result3"
         id="feComposite25" />
    </filter>
    <filter
       inkscape:label="Film Grain"
       inkscape:menu="Image Effects"
       inkscape:menu-tooltip="Adds a small scale graininess"
       style="color-interpolation-filters:sRGB"
       id="filter48"
       x="-0.028868532"
       y="-0.0088242507"
       width="1.0625463"
       height="1.0148202">
      <feTurbulence
         type="fractalNoise"
         numOctaves="3"
         baseFrequency="1"
         seed="0"
         result="result0"
         id="feTurbulence47" />
      <feColorMatrix
         result="result4"
         values="0"
         type="saturate"
         id="feColorMatrix47" />
      <feComposite
         in="SourceGraphic"
         in2="result4"
         operator="arithmetic"
         k1="1.25"
         k2="0.5"
         k3="0.5"
         result="result2"
         id="feComposite47"
         k4="0" />
      <feBlend
         result="result5"
         mode="normal"
         in="result2"
         in2="SourceGraphic"
         id="feBlend47" />
      <feComposite
         in="result5"
         in2="SourceGraphic"
         operator="in"
         result="result3"
         id="feComposite48" />
    </filter>
  </defs>
  <g
     inkscape:label="Layer 1"
     inkscape:groupmode="layer"
     id="layer1"
     transform="translate(-35.907627,-17.939268)">
    <path
       style="fill:#065f46;fill-opacity:0.99607843;stroke:#065f46;stroke-width:3.68955;stroke-dasharray:none;stroke-opacity:0.99607843;paint-order:markers stroke fill"
       d="M 149.99388,112.19805 132.95744,129.5194"
       id="path2-8-2"
       sodipodi:nodetypes="cc" />
    <path
       style="fill:#065f46;fill-opacity:0.99607843;stroke:#065f46;stroke-width:3.75405;stroke-dasharray:none;stroke-opacity:0.99607843;paint-order:markers stroke fill"
       d="M 146.92245,104.47241 125.64856,126.1021"
       id="path2"
       sodipodi:nodetypes="cc" />
    <path
       id="path8-8"
       style="fill:#065f46;fill-opacity:0.99607843;stroke:#065f46;stroke-width:4.99017;stroke-dasharray:none;stroke-opacity:0.99607843;paint-order:markers stroke fill"
       d="m 109.70024,77.780642 c 0,0 -9.26367,-19.677695 -4.89988,-33.186796 4.3528,-13.475127 20.59805,-22.497652 20.59805,-22.497652 0,0 6.33159,20.18021 4.72546,33.805542 -1.7059,14.471477 -20.42363,21.878906 -20.42363,21.878906 z"
       sodipodi:nodetypes="cscsc" />
    <path
       id="path8-8-9"
       style="fill:#065f46;fill-opacity:0.99607843;stroke:#065f46;stroke-width:5.04644;stroke-dasharray:none;stroke-opacity:0.99607843;paint-order:markers stroke fill"
       d="m 97.108526,90.324683 c 0,0 -19.874744,-9.449362 -33.487445,-5.063541 -13.578463,4.374789 -22.630819,20.820638 -22.630819,20.820638 0,0 20.372907,6.47785 34.110999,4.88847 14.591216,-1.6881 22.007265,-20.645567 22.007265,-20.645567 z"
       sodipodi:nodetypes="cscsc" />
    <path
       style="fill:#065f46;fill-opacity:0.99607843;stroke:#065f46;stroke-width:10;stroke-dasharray:none;stroke-opacity:0.99607843;paint-order:markers stroke fill"
       d="m 106.94618,86.611269 c 0,0 21.72639,-3.037086 25.94656,3.798692 5.25332,8.509264 -12.81277,29.223079 -6.60312,36.892689 5.55798,6.86467 36.69058,-3.83942 36.69058,-3.83942"
       id="path1-3"
       sodipodi:nodetypes="cssc" />
    <path
       style="fill:#065f46;fill-opacity:0.99607843;stroke:#065f46;stroke-width:10;stroke-dasharray:none;stroke-opacity:0.99607843;paint-order:markers stroke fill"
       d="m 107.36569,86.661029 c 0,0 -2.8319,20.913821 3.89144,25.204561 8.36932,5.34119 28.74242,-13.027025 36.28586,-6.71352 6.75177,5.65092 -3.20532,38.44695 -3.20532,38.44695"
       id="path1"
       sodipodi:nodetypes="cssc" />
    <path
       id="path10"
       style="fill:#065f46;fill-opacity:0.99607843;stroke:#065f46;stroke-width:4.71412;stroke-opacity:0.99607843;paint-order:markers stroke fill"
       d="m 67.805766,24.666563 a 24.888853,25.305081 0 0 0 -15.823324,7.347355 24.888853,25.305081 0 0 0 0,35.786446 24.888853,25.305081 0 0 0 35.198369,0 24.888853,25.305081 0 0 0 0,-35.786446 24.888853,25.305081 0 0 0 -19.375045,-7.347355 z m -3.137276,9.943579 a 10.26209,10.433708 0 0 1 7.988143,3.029273 10.26209,10.433708 0 0 1 0,14.755688 10.26209,10.433708 0 0 1 -14.51281,0 10.26209,10.433708 0 0 1 0,-14.755688 10.26209,10.433708 0 0 1 6.524667,-3.029273 z" />
    <path
       style="fill:#065f46;fill-rule:evenodd;stroke:#065f46;stroke-width:19.0336;stroke-dasharray:none;stroke-opacity:0.99607843;paint-order:markers stroke fill;fill-opacity:0.99607843"
       d="M 77.842497,57.997434 116.14468,96.940156"
       id="path3"
       sodipodi:nodetypes="cc" />
    <path
       style="fill:#065f46;fill-opacity:0.99607843;fill-rule:evenodd;stroke:#065f46;stroke-width:1;stroke-dasharray:none;stroke-opacity:0.99607843;paint-order:markers stroke fill"
       d="m 107.63911,87.318896 1.4699,22.342594 c 6.56559,3.86822 13.13117,0.31153 19.69676,-1.76389 3.39964,-3.377 4.72608,-9.863825 4.99769,-17.932871 -7.08426,-4.986472 -16.78784,-3.77203 -26.16435,-2.645833 z"
       id="path7"
       sodipodi:nodetypes="ccccc" />
    <path
       style="fill:#065f46;fill-opacity:0.99607843;fill-rule:evenodd;stroke:#065f46;stroke-width:1;stroke-dasharray:none;stroke-opacity:0.99607843;paint-order:markers stroke fill"
       d="m 128.92337,108.51758 -3.5278,17.93286 c 6.56559,3.86822 16.36497,3.54533 22.93056,1.46991 3.39965,-3.377 -0.27161,-16.33141 1e-5,-24.40046 -7.08426,-4.986475 -10.02627,3.87149 -19.40277,4.99769 z"
       id="path7-8"
       sodipodi:nodetypes="ccccc" />
  </g>
</svg>
